<svg width="267" height="82" viewBox="0 0 267 82" fill="none" xmlns="http://www.w3.org/2000/svg">
<path d="M16 0.5H251C259.56 0.5 266.5 7.43959 266.5 16V66C266.5 74.5604 259.56 81.5 251 81.5H16C7.43958 81.5 0.5 74.5604 0.5 66V16C0.5 7.43959 7.43959 0.5 16 0.5Z" fill="#EFD372"/>
<path d="M236 60C247.046 60 256 51.0457 256 40C256 28.9543 247.046 20 236 20C224.954 20 216 28.9543 216 40C216 51.0457 224.954 60 236 60Z" fill="#335B6B"/>
<path d="M242.038 39.5H228M236.077 35L243 39.5L236.077 44V35Z" stroke="white" stroke-linecap="round" stroke-linejoin="round"/>
<path d="M16 0.5H251C259.56 0.5 266.5 7.43959 266.5 16V66C266.5 74.5604 259.56 81.5 251 81.5H16C7.43958 81.5 0.5 74.5604 0.5 66V16C0.5 7.43959 7.43959 0.5 16 0.5Z" stroke="#EFD372"/>
<path d="M39.2402 45.8418L43.4297 33.7812H45.4707L40.207 48H38.752L39.2402 45.8418ZM35.3242 33.7812L39.4746 45.8418L39.9922 48H38.5371L33.2832 33.7812H35.3242ZM49.4342 37.4336V48H47.6178V37.4336H49.4342ZM47.4811 34.6309C47.4811 34.3379 47.569 34.0905 47.7448 33.8887C47.9271 33.6868 48.194 33.5859 48.5455 33.5859C48.8906 33.5859 49.1543 33.6868 49.3366 33.8887C49.5254 34.0905 49.6198 34.3379 49.6198 34.6309C49.6198 34.9108 49.5254 35.1517 49.3366 35.3535C49.1543 35.5488 48.8906 35.6465 48.5455 35.6465C48.194 35.6465 47.9271 35.5488 47.7448 35.3535C47.569 35.1517 47.4811 34.9108 47.4811 34.6309ZM57.0794 48.1953C56.3437 48.1953 55.6764 48.0716 55.0774 47.8242C54.485 47.5703 53.9739 47.2155 53.5442 46.7598C53.121 46.304 52.7955 45.7637 52.5677 45.1387C52.3398 44.5137 52.2259 43.8301 52.2259 43.0879V42.6777C52.2259 41.8184 52.3528 41.0534 52.6067 40.3828C52.8606 39.7057 53.2057 39.1328 53.6419 38.6641C54.0781 38.1953 54.5729 37.8405 55.1262 37.5996C55.6796 37.3587 56.2526 37.2383 56.845 37.2383C57.6002 37.2383 58.2512 37.3685 58.7981 37.6289C59.3515 37.8893 59.804 38.2539 60.1555 38.7227C60.5071 39.1849 60.7675 39.7318 60.9368 40.3633C61.1061 40.9883 61.1907 41.6719 61.1907 42.4141V43.2246H53.3001V41.75H59.3841V41.6133C59.358 41.1445 59.2604 40.6888 59.0911 40.2461C58.9283 39.8034 58.6679 39.4388 58.3098 39.1523C57.9518 38.8659 57.4635 38.7227 56.845 38.7227C56.4348 38.7227 56.0572 38.8105 55.7122 38.9863C55.3671 39.1556 55.0709 39.4095 54.8235 39.748C54.5761 40.0866 54.3841 40.5 54.2473 40.9883C54.1106 41.4766 54.0423 42.0397 54.0423 42.6777V43.0879C54.0423 43.5892 54.1106 44.0612 54.2473 44.5039C54.3906 44.9401 54.5957 45.3242 54.8626 45.6562C55.136 45.9883 55.4648 46.2487 55.8489 46.4375C56.2395 46.6263 56.6822 46.7207 57.177 46.7207C57.8151 46.7207 58.3554 46.5905 58.7981 46.3301C59.2408 46.0697 59.6282 45.7214 59.9602 45.2852L61.054 46.1543C60.8261 46.4993 60.5364 46.8281 60.1848 47.1406C59.8333 47.4531 59.4003 47.707 58.886 47.9023C58.3782 48.0977 57.776 48.1953 57.0794 48.1953ZM66.3359 46.125L69.0507 37.4336H70.2421L70.0077 39.1621L67.2441 48H66.082L66.3359 46.125ZM64.5097 37.4336L66.8241 46.2227L66.9902 48H65.7695L62.703 37.4336H64.5097ZM72.8398 46.1543L75.0468 37.4336H76.8437L73.7773 48H72.5663L72.8398 46.1543ZM70.5058 37.4336L73.162 45.9785L73.4648 48H72.3124L69.4706 39.1426L69.2362 37.4336H70.5058ZM89.9172 35.041L85.2102 48H83.2863L88.7062 33.7812H89.9465L89.9172 35.041ZM93.8625 48L89.1457 35.041L89.1164 33.7812H90.3566L95.7961 48H93.8625ZM93.6184 42.7363V44.2793H85.6301V42.7363H93.6184ZM99.7498 33V48H97.9334V33H99.7498ZM104.973 33V48H103.157V33H104.973ZM119.072 42.4238H115.273V40.8906H119.072C119.808 40.8906 120.403 40.7734 120.859 40.5391C121.315 40.3047 121.647 39.9792 121.855 39.5625C122.07 39.1458 122.177 38.6706 122.177 38.1367C122.177 37.6484 122.07 37.1895 121.855 36.7598C121.647 36.3301 121.315 35.985 120.859 35.7246C120.403 35.4577 119.808 35.3242 119.072 35.3242H115.713V48H113.828V33.7812H119.072C120.146 33.7812 121.054 33.9668 121.797 34.3379C122.539 34.709 123.102 35.2233 123.486 35.8809C123.87 36.5319 124.062 37.2773 124.062 38.1172C124.062 39.0286 123.87 39.8066 123.486 40.4512C123.102 41.0957 122.539 41.5872 121.797 41.9258C121.054 42.2578 120.146 42.4238 119.072 42.4238ZM128.338 39.0938V48H126.532V37.4336H128.289L128.338 39.0938ZM131.639 37.375L131.629 39.0547C131.48 39.0221 131.336 39.0026 131.2 38.9961C131.069 38.9831 130.92 38.9766 130.75 38.9766C130.334 38.9766 129.966 39.0417 129.647 39.1719C129.328 39.3021 129.058 39.4844 128.836 39.7188C128.615 39.9531 128.439 40.2331 128.309 40.5586C128.185 40.8776 128.104 41.2292 128.065 41.6133L127.557 41.9062C127.557 41.2682 127.619 40.6693 127.743 40.1094C127.873 39.5495 128.071 39.0547 128.338 38.625C128.605 38.1888 128.944 37.8503 129.354 37.6094C129.771 37.362 130.265 37.2383 130.838 37.2383C130.968 37.2383 131.118 37.2546 131.287 37.2871C131.457 37.3132 131.574 37.3424 131.639 37.375ZM132.995 42.834V42.6094C132.995 41.8477 133.106 41.1413 133.327 40.4902C133.549 39.8327 133.868 39.263 134.284 38.7812C134.701 38.293 135.205 37.9154 135.798 37.6484C136.39 37.375 137.054 37.2383 137.79 37.2383C138.532 37.2383 139.2 37.375 139.792 37.6484C140.391 37.9154 140.899 38.293 141.315 38.7812C141.739 39.263 142.061 39.8327 142.282 40.4902C142.504 41.1413 142.614 41.8477 142.614 42.6094V42.834C142.614 43.5957 142.504 44.3021 142.282 44.9531C142.061 45.6042 141.739 46.1738 141.315 46.6621C140.899 47.1439 140.394 47.5215 139.802 47.7949C139.216 48.0618 138.552 48.1953 137.81 48.1953C137.067 48.1953 136.4 48.0618 135.808 47.7949C135.215 47.5215 134.707 47.1439 134.284 46.6621C133.868 46.1738 133.549 45.6042 133.327 44.9531C133.106 44.3021 132.995 43.5957 132.995 42.834ZM134.802 42.6094V42.834C134.802 43.3613 134.864 43.8594 134.987 44.3281C135.111 44.7904 135.297 45.2005 135.544 45.5586C135.798 45.9167 136.114 46.1999 136.491 46.4082C136.869 46.61 137.308 46.7109 137.81 46.7109C138.304 46.7109 138.737 46.61 139.108 46.4082C139.486 46.1999 139.799 45.9167 140.046 45.5586C140.293 45.2005 140.479 44.7904 140.603 44.3281C140.733 43.8594 140.798 43.3613 140.798 42.834V42.6094C140.798 42.0885 140.733 41.597 140.603 41.1348C140.479 40.666 140.29 40.2526 140.036 39.8945C139.789 39.5299 139.476 39.2435 139.099 39.0352C138.728 38.8268 138.291 38.7227 137.79 38.7227C137.295 38.7227 136.859 38.8268 136.481 39.0352C136.11 39.2435 135.798 39.5299 135.544 39.8945C135.297 40.2526 135.111 40.666 134.987 41.1348C134.864 41.597 134.802 42.0885 134.802 42.6094ZM151.9 45.9492V33H153.716V48H152.056L151.9 45.9492ZM144.791 42.834V42.6289C144.791 41.8216 144.888 41.0892 145.084 40.4316C145.285 39.7676 145.569 39.1979 145.933 38.7227C146.304 38.2474 146.744 37.8828 147.252 37.6289C147.766 37.3685 148.339 37.2383 148.97 37.2383C149.634 37.2383 150.214 37.3555 150.709 37.5898C151.21 37.8177 151.633 38.153 151.978 38.5957C152.33 39.0319 152.606 39.5592 152.808 40.1777C153.01 40.7962 153.15 41.4961 153.228 42.2773V43.1758C153.157 43.9505 153.017 44.6471 152.808 45.2656C152.606 45.8841 152.33 46.4115 151.978 46.8477C151.633 47.2839 151.21 47.6191 150.709 47.8535C150.207 48.0814 149.621 48.1953 148.951 48.1953C148.332 48.1953 147.766 48.0618 147.252 47.7949C146.744 47.528 146.304 47.1536 145.933 46.6719C145.569 46.1901 145.285 45.6237 145.084 44.9727C144.888 44.3151 144.791 43.6022 144.791 42.834ZM146.607 42.6289V42.834C146.607 43.3613 146.659 43.8561 146.763 44.3184C146.874 44.7806 147.043 45.1875 147.271 45.5391C147.499 45.8906 147.789 46.1673 148.14 46.3691C148.492 46.5645 148.912 46.6621 149.4 46.6621C149.999 46.6621 150.491 46.5352 150.875 46.2812C151.265 46.0273 151.578 45.6921 151.812 45.2754C152.047 44.8587 152.229 44.4062 152.359 43.918V41.5645C152.281 41.2064 152.167 40.8613 152.017 40.5293C151.874 40.1908 151.685 39.8913 151.451 39.6309C151.223 39.3639 150.94 39.1523 150.601 38.9961C150.269 38.8398 149.875 38.7617 149.42 38.7617C148.925 38.7617 148.498 38.8659 148.14 39.0742C147.789 39.276 147.499 39.556 147.271 39.9141C147.043 40.2656 146.874 40.6758 146.763 41.1445C146.659 41.6068 146.607 42.1016 146.607 42.6289ZM163.354 45.5586V37.4336H165.17V48H163.442L163.354 45.5586ZM163.696 43.332L164.448 43.3125C164.448 44.0156 164.373 44.6667 164.223 45.2656C164.08 45.8581 163.845 46.3724 163.52 46.8086C163.194 47.2448 162.768 47.5866 162.241 47.834C161.713 48.0749 161.072 48.1953 160.317 48.1953C159.802 48.1953 159.33 48.1204 158.901 47.9707C158.478 47.821 158.113 47.5898 157.807 47.2773C157.501 46.9648 157.263 46.5579 157.094 46.0566C156.931 45.5553 156.85 44.9531 156.85 44.25V37.4336H158.657V44.2695C158.657 44.7448 158.709 45.1387 158.813 45.4512C158.923 45.7572 159.07 46.0013 159.252 46.1836C159.441 46.3594 159.649 46.4831 159.877 46.5547C160.112 46.6263 160.353 46.6621 160.6 46.6621C161.368 46.6621 161.977 46.5156 162.426 46.2227C162.875 45.9232 163.198 45.5228 163.393 45.0215C163.595 44.5137 163.696 43.9505 163.696 43.332ZM172.513 46.7109C172.942 46.7109 173.339 46.623 173.704 46.4473C174.069 46.2715 174.368 46.0306 174.602 45.7246C174.837 45.4121 174.97 45.0573 175.003 44.6602H176.722C176.689 45.2852 176.477 45.8678 176.087 46.4082C175.703 46.9421 175.198 47.375 174.573 47.707C173.948 48.0326 173.261 48.1953 172.513 48.1953C171.718 48.1953 171.025 48.0553 170.433 47.7754C169.847 47.4954 169.358 47.1113 168.968 46.623C168.584 46.1348 168.294 45.5749 168.099 44.9434C167.91 44.3053 167.815 43.6315 167.815 42.9219V42.5117C167.815 41.8021 167.91 41.1315 168.099 40.5C168.294 39.862 168.584 39.2988 168.968 38.8105C169.358 38.3223 169.847 37.9382 170.433 37.6582C171.025 37.3783 171.718 37.2383 172.513 37.2383C173.339 37.2383 174.062 37.4076 174.681 37.7461C175.299 38.0781 175.784 38.5339 176.136 39.1133C176.494 39.6862 176.689 40.3372 176.722 41.0664H175.003C174.97 40.6302 174.847 40.2363 174.632 39.8848C174.423 39.5332 174.137 39.2533 173.772 39.0449C173.414 38.8301 172.994 38.7227 172.513 38.7227C171.959 38.7227 171.494 38.8333 171.116 39.0547C170.745 39.2695 170.449 39.5625 170.227 39.9336C170.013 40.2982 169.856 40.7051 169.759 41.1543C169.668 41.597 169.622 42.0495 169.622 42.5117V42.9219C169.622 43.3841 169.668 43.8398 169.759 44.2891C169.85 44.7383 170.003 45.1452 170.218 45.5098C170.439 45.8743 170.735 46.1673 171.106 46.3887C171.484 46.6035 171.953 46.7109 172.513 46.7109ZM183.537 37.4336V38.8203H177.824V37.4336H183.537ZM179.757 34.8652H181.564V45.3828C181.564 45.7409 181.619 46.0111 181.73 46.1934C181.841 46.3757 181.984 46.4961 182.16 46.5547C182.336 46.6133 182.524 46.6426 182.726 46.6426C182.876 46.6426 183.032 46.6296 183.195 46.6035C183.364 46.571 183.491 46.5449 183.576 46.5254L183.586 48C183.442 48.0456 183.254 48.0879 183.019 48.127C182.791 48.1725 182.515 48.1953 182.189 48.1953C181.746 48.1953 181.339 48.1074 180.968 47.9316C180.597 47.7559 180.301 47.4629 180.08 47.0527C179.865 46.6361 179.757 46.0762 179.757 45.373V34.8652ZM192.168 45.1973C192.168 44.9368 192.11 44.696 191.992 44.4746C191.882 44.2467 191.651 44.0417 191.299 43.8594C190.954 43.6706 190.433 43.5078 189.737 43.3711C189.151 43.2474 188.62 43.1009 188.145 42.9316C187.676 42.7624 187.276 42.5573 186.944 42.3164C186.618 42.0755 186.367 41.7923 186.192 41.4668C186.016 41.1413 185.928 40.7604 185.928 40.3242C185.928 39.9076 186.019 39.5137 186.201 39.1426C186.39 38.7715 186.654 38.4427 186.992 38.1562C187.337 37.8698 187.751 37.6452 188.233 37.4824C188.714 37.3197 189.252 37.2383 189.844 37.2383C190.69 37.2383 191.413 37.388 192.012 37.6875C192.611 37.987 193.07 38.3874 193.389 38.8887C193.708 39.3835 193.867 39.9336 193.867 40.5391H192.061C192.061 40.2461 191.973 39.9629 191.797 39.6895C191.628 39.4095 191.377 39.1784 191.045 38.9961C190.72 38.8138 190.319 38.7227 189.844 38.7227C189.343 38.7227 188.936 38.8008 188.623 38.957C188.317 39.1068 188.093 39.2988 187.949 39.5332C187.813 39.7676 187.744 40.015 187.744 40.2754C187.744 40.4707 187.777 40.6465 187.842 40.8027C187.914 40.9525 188.037 41.0924 188.213 41.2227C188.389 41.3464 188.636 41.4635 188.955 41.5742C189.274 41.6849 189.681 41.7956 190.176 41.9062C191.042 42.1016 191.755 42.3359 192.315 42.6094C192.875 42.8828 193.291 43.2181 193.565 43.6152C193.838 44.0124 193.975 44.4941 193.975 45.0605C193.975 45.5228 193.877 45.946 193.682 46.3301C193.493 46.7142 193.216 47.0462 192.852 47.3262C192.494 47.5996 192.064 47.8145 191.563 47.9707C191.068 48.1204 190.511 48.1953 189.893 48.1953C188.962 48.1953 188.174 48.0293 187.53 47.6973C186.885 47.3652 186.397 46.9355 186.065 46.4082C185.733 45.8809 185.567 45.3242 185.567 44.7383H187.383C187.409 45.2331 187.552 45.627 187.813 45.9199C188.073 46.2064 188.392 46.4115 188.77 46.5352C189.147 46.6523 189.522 46.7109 189.893 46.7109C190.388 46.7109 190.801 46.6458 191.133 46.5156C191.472 46.3854 191.729 46.2064 191.905 45.9785C192.08 45.7507 192.168 45.4902 192.168 45.1973Z" fill="#274C5B"/>
</svg>
