<svg width="199" height="82" viewBox="0 0 199 82" fill="none" xmlns="http://www.w3.org/2000/svg">
<path d="M16 0.5H183C191.56 0.5 198.5 7.43959 198.5 16V66C198.5 74.5604 191.56 81.5 183 81.5H16C7.43959 81.5 0.5 74.5604 0.5 66V16C0.5 7.43959 7.43959 0.5 16 0.5Z" fill="#274C5B"/>
<path d="M172 61C182.493 61 191 52.4934 191 42C191 31.5066 182.493 23 172 23C161.507 23 153 31.5066 153 42C153 52.4934 161.507 61 172 61Z" fill="#335B6B"/>
<path d="M178.974 40.5H164M172.615 35L180 40.5L172.615 46V35Z" stroke="white" stroke-linecap="round" stroke-linejoin="round"/>
<path d="M16 0.5H183C191.56 0.5 198.5 7.43959 198.5 16V66C198.5 74.5604 191.56 81.5 183 81.5H16C7.43959 81.5 0.5 74.5604 0.5 66V16C0.5 7.43959 7.43959 0.5 16 0.5Z" stroke="#274C5B"/>
<path d="M41.7671 43.5859C41.7671 43.2705 41.7176 42.9922 41.6187 42.751C41.5259 42.5036 41.3589 42.2809 41.1177 42.083C40.8826 41.8851 40.5549 41.6965 40.1343 41.5171C39.7199 41.3377 39.1942 41.1553 38.5571 40.9697C37.8892 40.7718 37.2861 40.5522 36.748 40.311C36.21 40.0636 35.7492 39.7822 35.3657 39.4668C34.9823 39.1514 34.6885 38.7896 34.4844 38.3813C34.2803 37.9731 34.1782 37.5062 34.1782 36.9805C34.1782 36.4548 34.2865 35.9692 34.5029 35.5239C34.7194 35.0786 35.0286 34.6921 35.4307 34.3643C35.8389 34.0303 36.3244 33.7705 36.8872 33.585C37.45 33.3994 38.0778 33.3066 38.7705 33.3066C39.7848 33.3066 40.6445 33.5015 41.3496 33.8911C42.0609 34.2746 42.6021 34.7786 42.9731 35.4033C43.3442 36.0218 43.5298 36.6836 43.5298 37.3887H41.7485C41.7485 36.8815 41.6403 36.4331 41.4238 36.0435C41.2074 35.6476 40.8796 35.3384 40.4404 35.1157C40.0013 34.8869 39.4447 34.7725 38.7705 34.7725C38.1335 34.7725 37.6077 34.8683 37.1934 35.0601C36.779 35.2518 36.4697 35.5116 36.2656 35.8394C36.0677 36.1672 35.9688 36.5413 35.9688 36.9619C35.9688 37.2464 36.0275 37.5062 36.145 37.7412C36.2687 37.9701 36.4574 38.1834 36.7109 38.3813C36.9707 38.5793 37.2985 38.7617 37.6943 38.9287C38.0964 39.0957 38.5757 39.2565 39.1323 39.4111C39.8993 39.6276 40.561 39.8688 41.1177 40.1348C41.6743 40.4007 42.132 40.7007 42.4907 41.0347C42.8556 41.3625 43.1247 41.7367 43.2979 42.1572C43.4772 42.5716 43.5669 43.0417 43.5669 43.5674C43.5669 44.1178 43.4556 44.6157 43.2329 45.061C43.0103 45.5063 42.6917 45.8867 42.2773 46.2021C41.863 46.5176 41.3651 46.7619 40.7837 46.9351C40.2085 47.1021 39.5653 47.1855 38.854 47.1855C38.2293 47.1855 37.6139 47.099 37.0078 46.9258C36.4079 46.7526 35.8605 46.4928 35.3657 46.1465C34.8771 45.8001 34.4844 45.3734 34.1875 44.8662C33.8968 44.3529 33.7515 43.7591 33.7515 43.085H35.5327C35.5327 43.5488 35.6224 43.9478 35.8018 44.2817C35.9811 44.6095 36.2254 44.8817 36.5347 45.0981C36.8501 45.3146 37.2057 45.4754 37.6016 45.5806C38.0036 45.6795 38.4211 45.729 38.854 45.729C39.4787 45.729 40.0075 45.6424 40.4404 45.4692C40.8734 45.2961 41.2012 45.0487 41.4238 44.7271C41.6527 44.4054 41.7671 44.0251 41.7671 43.5859ZM47.9057 32.75V47H46.1894V32.75H47.9057ZM47.4975 41.6006L46.7831 41.5728C46.7893 40.8862 46.8913 40.2523 47.0893 39.6709C47.2872 39.0833 47.5655 38.5731 47.9242 38.1401C48.2829 37.7072 48.7097 37.3732 49.2045 37.1382C49.7055 36.897 50.259 36.7764 50.8651 36.7764C51.3599 36.7764 51.8052 36.8444 52.2011 36.9805C52.5969 37.1104 52.934 37.3206 53.2123 37.6113C53.4968 37.902 53.7133 38.2793 53.8617 38.7432C54.0102 39.2008 54.0844 39.7606 54.0844 40.4224V47H52.3588V40.4038C52.3588 39.8781 52.2815 39.4575 52.1269 39.1421C51.9722 38.8205 51.7465 38.5885 51.4496 38.4463C51.1527 38.2979 50.7878 38.2236 50.3549 38.2236C49.9281 38.2236 49.5385 38.3133 49.1859 38.4927C48.8396 38.672 48.5396 38.9194 48.286 39.2349C48.0386 39.5503 47.8438 39.9121 47.7016 40.3203C47.5655 40.7223 47.4975 41.1491 47.4975 41.6006ZM56.7996 42.0923V41.8789C56.7996 41.1553 56.9048 40.4842 57.115 39.8657C57.3253 39.241 57.6284 38.6999 58.0242 38.2422C58.4201 37.7783 58.8994 37.4196 59.4622 37.166C60.025 36.9062 60.6559 36.7764 61.3548 36.7764C62.0599 36.7764 62.6938 36.9062 63.2566 37.166C63.8257 37.4196 64.3081 37.7783 64.7039 38.2422C65.1059 38.6999 65.4121 39.241 65.6224 39.8657C65.8327 40.4842 65.9378 41.1553 65.9378 41.8789V42.0923C65.9378 42.8159 65.8327 43.487 65.6224 44.1055C65.4121 44.724 65.1059 45.2651 64.7039 45.729C64.3081 46.1867 63.8287 46.5454 63.2659 46.8052C62.7093 47.0588 62.0784 47.1855 61.3733 47.1855C60.6683 47.1855 60.0343 47.0588 59.4715 46.8052C58.9087 46.5454 58.4262 46.1867 58.0242 45.729C57.6284 45.2651 57.3253 44.724 57.115 44.1055C56.9048 43.487 56.7996 42.8159 56.7996 42.0923ZM58.5159 41.8789V42.0923C58.5159 42.5933 58.5747 43.0664 58.6922 43.5117C58.8097 43.9508 58.986 44.3405 59.221 44.6807C59.4622 45.0208 59.7622 45.2899 60.1209 45.4878C60.4796 45.6795 60.8971 45.7754 61.3733 45.7754C61.8434 45.7754 62.2547 45.6795 62.6072 45.4878C62.966 45.2899 63.2628 45.0208 63.4979 44.6807C63.7329 44.3405 63.9091 43.9508 64.0267 43.5117C64.1504 43.0664 64.2122 42.5933 64.2122 42.0923V41.8789C64.2122 41.3841 64.1504 40.9172 64.0267 40.478C63.9091 40.0327 63.7298 39.64 63.4886 39.2998C63.2535 38.9535 62.9567 38.6813 62.5979 38.4834C62.2454 38.2855 61.831 38.1865 61.3548 38.1865C60.8847 38.1865 60.4703 38.2855 60.1116 38.4834C59.7591 38.6813 59.4622 38.9535 59.221 39.2998C58.986 39.64 58.8097 40.0327 58.6922 40.478C58.5747 40.9172 58.5159 41.3841 58.5159 41.8789ZM70.4064 38.8916V50.8594H68.6809V36.9619H70.258L70.4064 38.8916ZM77.1696 41.8975V42.0923C77.1696 42.8221 77.083 43.4993 76.9099 44.124C76.7367 44.7425 76.4831 45.2806 76.1491 45.7383C75.8213 46.196 75.4162 46.5516 74.9338 46.8052C74.4514 47.0588 73.8978 47.1855 73.2731 47.1855C72.6361 47.1855 72.0733 47.0804 71.5847 46.8701C71.0961 46.6598 70.6817 46.3537 70.3415 45.9517C70.0013 45.5496 69.7292 45.0672 69.5251 44.5044C69.3272 43.9416 69.1911 43.3076 69.1169 42.6025V41.5635C69.1911 40.8213 69.3303 40.1564 69.5344 39.5688C69.7385 38.9813 70.0075 38.4803 70.3415 38.0659C70.6817 37.6453 71.093 37.3268 71.5754 37.1104C72.0578 36.8877 72.6145 36.7764 73.2453 36.7764C73.8762 36.7764 74.4359 36.9001 74.9245 37.1475C75.4131 37.3887 75.8244 37.735 76.1584 38.1865C76.4924 38.638 76.7429 39.1792 76.9099 39.8101C77.083 40.4347 77.1696 41.1305 77.1696 41.8975ZM75.444 42.0923V41.8975C75.444 41.3965 75.3915 40.9264 75.2863 40.4873C75.1812 40.042 75.0173 39.6523 74.7946 39.3184C74.5782 38.9782 74.2998 38.7122 73.9597 38.5205C73.6195 38.3226 73.2144 38.2236 72.7443 38.2236C72.3114 38.2236 71.9341 38.2979 71.6125 38.4463C71.2971 38.5947 71.028 38.7957 70.8054 39.0493C70.5827 39.2967 70.4003 39.5812 70.258 39.9028C70.1219 40.2183 70.0199 40.5461 69.9519 40.8862V43.2891C70.0756 43.722 70.2487 44.1302 70.4714 44.5137C70.694 44.891 70.9909 45.1971 71.362 45.4321C71.7331 45.661 72.2001 45.7754 72.7629 45.7754C73.2268 45.7754 73.6257 45.6795 73.9597 45.4878C74.2998 45.2899 74.5782 45.0208 74.7946 44.6807C75.0173 44.3405 75.1812 43.9508 75.2863 43.5117C75.3915 43.0664 75.444 42.5933 75.444 42.0923ZM95.9224 33.4922V47H94.1226L87.3223 36.5815V47H85.5317V33.4922H87.3223L94.1504 43.9385V33.4922H95.9224ZM98.9809 42.0923V41.8789C98.9809 41.1553 99.086 40.4842 99.2963 39.8657C99.5066 39.241 99.8096 38.6999 100.205 38.2422C100.601 37.7783 101.081 37.4196 101.643 37.166C102.206 36.9062 102.837 36.7764 103.536 36.7764C104.241 36.7764 104.875 36.9062 105.438 37.166C106.007 37.4196 106.489 37.7783 106.885 38.2422C107.287 38.6999 107.593 39.241 107.804 39.8657C108.014 40.4842 108.119 41.1553 108.119 41.8789V42.0923C108.119 42.8159 108.014 43.487 107.804 44.1055C107.593 44.724 107.287 45.2651 106.885 45.729C106.489 46.1867 106.01 46.5454 105.447 46.8052C104.891 47.0588 104.26 47.1855 103.555 47.1855C102.85 47.1855 102.216 47.0588 101.653 46.8052C101.09 46.5454 100.607 46.1867 100.205 45.729C99.8096 45.2651 99.5066 44.724 99.2963 44.1055C99.086 43.487 98.9809 42.8159 98.9809 42.0923ZM100.697 41.8789V42.0923C100.697 42.5933 100.756 43.0664 100.873 43.5117C100.991 43.9508 101.167 44.3405 101.402 44.6807C101.643 45.0208 101.943 45.2899 102.302 45.4878C102.661 45.6795 103.078 45.7754 103.555 45.7754C104.025 45.7754 104.436 45.6795 104.788 45.4878C105.147 45.2899 105.444 45.0208 105.679 44.6807C105.914 44.3405 106.09 43.9508 106.208 43.5117C106.332 43.0664 106.393 42.5933 106.393 42.0923V41.8789C106.393 41.3841 106.332 40.9172 106.208 40.478C106.09 40.0327 105.911 39.64 105.67 39.2998C105.435 38.9535 105.138 38.6813 104.779 38.4834C104.427 38.2855 104.012 38.1865 103.536 38.1865C103.066 38.1865 102.652 38.2855 102.293 38.4834C101.94 38.6813 101.643 38.9535 101.402 39.2998C101.167 39.64 100.991 40.0327 100.873 40.478C100.756 40.9172 100.697 41.3841 100.697 41.8789ZM113.413 45.2188L115.992 36.9619H117.124L116.902 38.604L114.276 47H113.172L113.413 45.2188ZM111.679 36.9619L113.877 45.3115L114.035 47H112.875L109.962 36.9619H111.679ZM119.592 45.2466L121.689 36.9619H123.396L120.483 47H119.332L119.592 45.2466ZM117.375 36.9619L119.898 45.0796L120.186 47H119.091L116.391 38.5854L116.169 36.9619H117.375Z" fill="white"/>
</svg>
